<svg xmlns="http://www.w3.org/2000/svg" version="1.1" height="192" width="1184" viewBox="0 0 1184 192" class="diagram" text-anchor="middle" font-family="monospace" font-size="13px" stroke-linecap="round">
<rect class="gray" x="1172" y="120" width="8" height="16" fill="rgb(0,0,0)"/>
<rect class="gray" x="1172" y="104" width="8" height="16" fill="rgb(0,0,0)"/>
<rect class="gray" x="1172" y="88" width="8" height="16" fill="rgb(0,0,0)"/>
<rect class="gray" x="1172" y="72" width="8" height="16" fill="rgb(0,0,0)"/>
<rect class="gray" x="1172" y="56" width="8" height="16" fill="rgb(0,0,0)"/>
<rect class="gray" x="1172" y="40" width="8" height="16" fill="rgb(0,0,0)"/>
<rect class="gray" x="1164" y="136" width="8" height="16" fill="rgb(0,0,0)"/>
<rect class="gray" x="1164" y="120" width="8" height="16" fill="rgb(0,0,0)"/>
<rect class="gray" x="1164" y="104" width="8" height="16" fill="rgb(0,0,0)"/>
<rect class="gray" x="1164" y="88" width="8" height="16" fill="rgb(0,0,0)"/>
<rect class="gray" x="1164" y="72" width="8" height="16" fill="rgb(0,0,0)"/>
<rect class="gray" x="1164" y="56" width="8" height="16" fill="rgb(0,0,0)"/>
<rect class="gray" x="1164" y="40" width="8" height="16" fill="rgb(0,0,0)"/>
<rect class="gray" x="1164" y="24" width="8" height="16" fill="rgb(0,0,0)"/>
<rect class="gray" x="1132" y="136" width="8" height="16" fill="rgb(0,0,0)"/>
<rect class="gray" x="1132" y="120" width="8" height="16" fill="rgb(0,0,0)"/>
<rect class="gray" x="1132" y="104" width="8" height="16" fill="rgb(0,0,0)"/>
<rect class="gray" x="1132" y="88" width="8" height="16" fill="rgb(0,0,0)"/>
<rect class="gray" x="1132" y="72" width="8" height="16" fill="rgb(0,0,0)"/>
<rect class="gray" x="1132" y="56" width="8" height="16" fill="rgb(0,0,0)"/>
<rect class="gray" x="1132" y="40" width="8" height="16" fill="rgb(0,0,0)"/>
<rect class="gray" x="1132" y="24" width="8" height="16" fill="rgb(0,0,0)"/>
<rect class="gray" x="1124" y="136" width="8" height="16" fill="rgb(0,0,0)"/>
<rect class="gray" x="1124" y="120" width="8" height="16" fill="rgb(0,0,0)"/>
<rect class="gray" x="1124" y="104" width="8" height="16" fill="rgb(0,0,0)"/>
<rect class="gray" x="1124" y="88" width="8" height="16" fill="rgb(0,0,0)"/>
<rect class="gray" x="1124" y="72" width="8" height="16" fill="rgb(0,0,0)"/>
<rect class="gray" x="1124" y="56" width="8" height="16" fill="rgb(0,0,0)"/>
<rect class="gray" x="1124" y="40" width="8" height="16" fill="rgb(0,0,0)"/>
<rect class="gray" x="1116" y="136" width="8" height="16" fill="rgb(0,0,0)"/>
<rect class="gray" x="1116" y="120" width="8" height="16" fill="rgb(0,0,0)"/>
<rect class="gray" x="1116" y="104" width="8" height="16" fill="rgb(0,0,0)"/>
<rect class="gray" x="1116" y="88" width="8" height="16" fill="rgb(0,0,0)"/>
<rect class="gray" x="1116" y="72" width="8" height="16" fill="rgb(0,0,0)"/>
<rect class="gray" x="1116" y="56" width="8" height="16" fill="rgb(0,0,0)"/>
<rect class="gray" x="1116" y="40" width="8" height="16" fill="rgb(0,0,0)"/>
<rect class="gray" x="1092" y="120" width="8" height="16" fill="rgb(0,0,0)"/>
<rect class="gray" x="1092" y="40" width="8" height="16" fill="rgb(0,0,0)"/>
<rect class="gray" x="1092" y="24" width="8" height="16" fill="rgb(0,0,0)"/>
<rect class="gray" x="1084" y="120" width="8" height="16" fill="rgb(0,0,0)"/>
<rect class="gray" x="1084" y="40" width="8" height="16" fill="rgb(0,0,0)"/>
<rect class="gray" x="1084" y="24" width="8" height="16" fill="rgb(0,0,0)"/>
<rect class="gray" x="1076" y="136" width="8" height="16" fill="rgb(0,0,0)"/>
<rect class="gray" x="1076" y="120" width="8" height="16" fill="rgb(0,0,0)"/>
<rect class="gray" x="1076" y="104" width="8" height="16" fill="rgb(0,0,0)"/>
<rect class="gray" x="1076" y="56" width="8" height="16" fill="rgb(0,0,0)"/>
<rect class="gray" x="1076" y="40" width="8" height="16" fill="rgb(0,0,0)"/>
<rect class="gray" x="1076" y="24" width="8" height="16" fill="rgb(0,0,0)"/>
<rect class="gray" x="1068" y="136" width="8" height="16" fill="rgb(0,0,0)"/>
<rect class="gray" x="1068" y="24" width="8" height="16" fill="rgb(0,0,0)"/>
<rect class="gray" x="1060" y="136" width="8" height="16" fill="rgb(0,0,0)"/>
<rect class="gray" x="1060" y="24" width="8" height="16" fill="rgb(0,0,0)"/>
<rect class="gray" x="1052" y="136" width="8" height="16" fill="rgb(0,0,0)"/>
<rect class="gray" x="1052" y="24" width="8" height="16" fill="rgb(0,0,0)"/>
<rect class="gray" x="1044" y="136" width="8" height="16" fill="rgb(0,0,0)"/>
<rect class="gray" x="1044" y="120" width="8" height="16" fill="rgb(0,0,0)"/>
<rect class="gray" x="1044" y="104" width="8" height="16" fill="rgb(0,0,0)"/>
<rect class="gray" x="1044" y="88" width="8" height="16" fill="rgb(0,0,0)"/>
<rect class="gray" x="1044" y="72" width="8" height="16" fill="rgb(0,0,0)"/>
<rect class="gray" x="1044" y="56" width="8" height="16" fill="rgb(0,0,0)"/>
<rect class="gray" x="1044" y="40" width="8" height="16" fill="rgb(0,0,0)"/>
<rect class="gray" x="1044" y="24" width="8" height="16" fill="rgb(0,0,0)"/>
<rect class="gray" x="1036" y="136" width="8" height="16" fill="rgb(0,0,0)"/>
<rect class="gray" x="1036" y="120" width="8" height="16" fill="rgb(0,0,0)"/>
<rect class="gray" x="1036" y="104" width="8" height="16" fill="rgb(0,0,0)"/>
<rect class="gray" x="1036" y="88" width="8" height="16" fill="rgb(0,0,0)"/>
<rect class="gray" x="1036" y="72" width="8" height="16" fill="rgb(0,0,0)"/>
<rect class="gray" x="1036" y="56" width="8" height="16" fill="rgb(0,0,0)"/>
<rect class="gray" x="1036" y="40" width="8" height="16" fill="rgb(0,0,0)"/>
<rect class="gray" x="1028" y="136" width="8" height="16" fill="rgb(0,0,0)"/>
<rect class="gray" x="1028" y="120" width="8" height="16" fill="rgb(0,0,0)"/>
<rect class="gray" x="1028" y="104" width="8" height="16" fill="rgb(0,0,0)"/>
<rect class="gray" x="1028" y="88" width="8" height="16" fill="rgb(0,0,0)"/>
<rect class="gray" x="1028" y="72" width="8" height="16" fill="rgb(0,0,0)"/>
<rect class="gray" x="1028" y="56" width="8" height="16" fill="rgb(0,0,0)"/>
<rect class="gray" x="1028" y="40" width="8" height="16" fill="rgb(0,0,0)"/>
<rect class="gray" x="1004" y="136" width="8" height="16" fill="rgb(0,0,0)"/>
<rect class="gray" x="1004" y="120" width="8" height="16" fill="rgb(0,0,0)"/>
<rect class="gray" x="1004" y="104" width="8" height="16" fill="rgb(0,0,0)"/>
<rect class="gray" x="1004" y="56" width="8" height="16" fill="rgb(0,0,0)"/>
<rect class="gray" x="1004" y="40" width="8" height="16" fill="rgb(0,0,0)"/>
<rect class="gray" x="1004" y="24" width="8" height="16" fill="rgb(0,0,0)"/>
<rect class="gray" x="996" y="136" width="8" height="16" fill="rgb(0,0,0)"/>
<rect class="gray" x="996" y="120" width="8" height="16" fill="rgb(0,0,0)"/>
<rect class="gray" x="996" y="104" width="8" height="16" fill="rgb(0,0,0)"/>
<rect class="gray" x="996" y="72" width="8" height="16" fill="rgb(0,0,0)"/>
<rect class="gray" x="996" y="56" width="8" height="16" fill="rgb(0,0,0)"/>
<rect class="gray" x="996" y="40" width="8" height="16" fill="rgb(0,0,0)"/>
<rect class="gray" x="996" y="24" width="8" height="16" fill="rgb(0,0,0)"/>
<rect class="gray" x="988" y="152" width="8" height="16" fill="rgb(0,0,0)"/>
<rect class="gray" x="988" y="136" width="8" height="16" fill="rgb(0,0,0)"/>
<rect class="gray" x="988" y="120" width="8" height="16" fill="rgb(0,0,0)"/>
<rect class="gray" x="988" y="104" width="8" height="16" fill="rgb(0,0,0)"/>
<rect class="gray" x="988" y="72" width="8" height="16" fill="rgb(0,0,0)"/>
<rect class="gray" x="988" y="56" width="8" height="16" fill="rgb(0,0,0)"/>
<rect class="gray" x="988" y="40" width="8" height="16" fill="rgb(0,0,0)"/>
<rect class="gray" x="988" y="24" width="8" height="16" fill="rgb(0,0,0)"/>
<rect class="gray" x="980" y="104" width="8" height="16" fill="rgb(0,0,0)"/>
<rect class="gray" x="980" y="24" width="8" height="16" fill="rgb(0,0,0)"/>
<rect class="gray" x="972" y="104" width="8" height="16" fill="rgb(0,0,0)"/>
<rect class="gray" x="972" y="24" width="8" height="16" fill="rgb(0,0,0)"/>
<rect class="gray" x="964" y="104" width="8" height="16" fill="rgb(0,0,0)"/>
<rect class="gray" x="964" y="24" width="8" height="16" fill="rgb(0,0,0)"/>
<rect class="gray" x="956" y="152" width="8" height="16" fill="rgb(0,0,0)"/>
<rect class="gray" x="956" y="136" width="8" height="16" fill="rgb(0,0,0)"/>
<rect class="gray" x="956" y="120" width="8" height="16" fill="rgb(0,0,0)"/>
<rect class="gray" x="956" y="104" width="8" height="16" fill="rgb(0,0,0)"/>
<rect class="gray" x="956" y="88" width="8" height="16" fill="rgb(0,0,0)"/>
<rect class="gray" x="956" y="72" width="8" height="16" fill="rgb(0,0,0)"/>
<rect class="gray" x="956" y="56" width="8" height="16" fill="rgb(0,0,0)"/>
<rect class="gray" x="956" y="40" width="8" height="16" fill="rgb(0,0,0)"/>
<rect class="gray" x="956" y="24" width="8" height="16" fill="rgb(0,0,0)"/>
<rect class="gray" x="948" y="152" width="8" height="16" fill="rgb(0,0,0)"/>
<rect class="gray" x="948" y="136" width="8" height="16" fill="rgb(0,0,0)"/>
<rect class="gray" x="948" y="120" width="8" height="16" fill="rgb(0,0,0)"/>
<rect class="gray" x="948" y="104" width="8" height="16" fill="rgb(0,0,0)"/>
<rect class="gray" x="948" y="88" width="8" height="16" fill="rgb(0,0,0)"/>
<rect class="gray" x="948" y="72" width="8" height="16" fill="rgb(0,0,0)"/>
<rect class="gray" x="948" y="56" width="8" height="16" fill="rgb(0,0,0)"/>
<rect class="gray" x="948" y="40" width="8" height="16" fill="rgb(0,0,0)"/>
<rect class="gray" x="940" y="152" width="8" height="16" fill="rgb(0,0,0)"/>
<rect class="gray" x="940" y="136" width="8" height="16" fill="rgb(0,0,0)"/>
<rect class="gray" x="940" y="120" width="8" height="16" fill="rgb(0,0,0)"/>
<rect class="gray" x="940" y="104" width="8" height="16" fill="rgb(0,0,0)"/>
<rect class="gray" x="940" y="88" width="8" height="16" fill="rgb(0,0,0)"/>
<rect class="gray" x="940" y="72" width="8" height="16" fill="rgb(0,0,0)"/>
<rect class="gray" x="940" y="56" width="8" height="16" fill="rgb(0,0,0)"/>
<rect class="gray" x="940" y="40" width="8" height="16" fill="rgb(0,0,0)"/>
<rect class="gray" x="932" y="104" width="8" height="16" fill="rgb(0,0,0)"/>
<rect class="gray" x="916" y="120" width="8" height="16" fill="rgb(0,0,0)"/>
<rect class="gray" x="916" y="104" width="8" height="16" fill="rgb(0,0,0)"/>
<rect class="gray" x="916" y="88" width="8" height="16" fill="rgb(0,0,0)"/>
<rect class="gray" x="916" y="72" width="8" height="16" fill="rgb(0,0,0)"/>
<rect class="gray" x="916" y="56" width="8" height="16" fill="rgb(0,0,0)"/>
<rect class="gray" x="916" y="40" width="8" height="16" fill="rgb(0,0,0)"/>
<rect class="gray" x="916" y="24" width="8" height="16" fill="rgb(0,0,0)"/>
<rect class="gray" x="908" y="120" width="8" height="16" fill="rgb(0,0,0)"/>
<rect class="gray" x="908" y="104" width="8" height="16" fill="rgb(0,0,0)"/>
<rect class="gray" x="908" y="88" width="8" height="16" fill="rgb(0,0,0)"/>
<rect class="gray" x="908" y="72" width="8" height="16" fill="rgb(0,0,0)"/>
<rect class="gray" x="908" y="56" width="8" height="16" fill="rgb(0,0,0)"/>
<rect class="gray" x="908" y="40" width="8" height="16" fill="rgb(0,0,0)"/>
<rect class="gray" x="908" y="24" width="8" height="16" fill="rgb(0,0,0)"/>
<rect class="gray" x="900" y="136" width="8" height="16" fill="rgb(0,0,0)"/>
<rect class="gray" x="900" y="120" width="8" height="16" fill="rgb(0,0,0)"/>
<rect class="gray" x="900" y="104" width="8" height="16" fill="rgb(0,0,0)"/>
<rect class="gray" x="900" y="88" width="8" height="16" fill="rgb(0,0,0)"/>
<rect class="gray" x="900" y="72" width="8" height="16" fill="rgb(0,0,0)"/>
<rect class="gray" x="900" y="56" width="8" height="16" fill="rgb(0,0,0)"/>
<rect class="gray" x="900" y="40" width="8" height="16" fill="rgb(0,0,0)"/>
<rect class="gray" x="900" y="24" width="8" height="16" fill="rgb(0,0,0)"/>
<rect class="gray" x="892" y="24" width="8" height="16" fill="rgb(0,0,0)"/>
<rect class="gray" x="884" y="24" width="8" height="16" fill="rgb(0,0,0)"/>
<rect class="gray" x="876" y="24" width="8" height="16" fill="rgb(0,0,0)"/>
<rect class="gray" x="868" y="136" width="8" height="16" fill="rgb(0,0,0)"/>
<rect class="gray" x="868" y="120" width="8" height="16" fill="rgb(0,0,0)"/>
<rect class="gray" x="868" y="104" width="8" height="16" fill="rgb(0,0,0)"/>
<rect class="gray" x="868" y="88" width="8" height="16" fill="rgb(0,0,0)"/>
<rect class="gray" x="868" y="72" width="8" height="16" fill="rgb(0,0,0)"/>
<rect class="gray" x="868" y="56" width="8" height="16" fill="rgb(0,0,0)"/>
<rect class="gray" x="868" y="40" width="8" height="16" fill="rgb(0,0,0)"/>
<rect class="gray" x="868" y="24" width="8" height="16" fill="rgb(0,0,0)"/>
<rect class="gray" x="860" y="136" width="8" height="16" fill="rgb(0,0,0)"/>
<rect class="gray" x="860" y="120" width="8" height="16" fill="rgb(0,0,0)"/>
<rect class="gray" x="860" y="104" width="8" height="16" fill="rgb(0,0,0)"/>
<rect class="gray" x="860" y="88" width="8" height="16" fill="rgb(0,0,0)"/>
<rect class="gray" x="860" y="72" width="8" height="16" fill="rgb(0,0,0)"/>
<rect class="gray" x="860" y="56" width="8" height="16" fill="rgb(0,0,0)"/>
<rect class="gray" x="860" y="40" width="8" height="16" fill="rgb(0,0,0)"/>
<rect class="gray" x="852" y="136" width="8" height="16" fill="rgb(0,0,0)"/>
<rect class="gray" x="852" y="120" width="8" height="16" fill="rgb(0,0,0)"/>
<rect class="gray" x="852" y="104" width="8" height="16" fill="rgb(0,0,0)"/>
<rect class="gray" x="852" y="88" width="8" height="16" fill="rgb(0,0,0)"/>
<rect class="gray" x="852" y="72" width="8" height="16" fill="rgb(0,0,0)"/>
<rect class="gray" x="852" y="56" width="8" height="16" fill="rgb(0,0,0)"/>
<rect class="gray" x="852" y="40" width="8" height="16" fill="rgb(0,0,0)"/>
<rect class="gray" x="804" y="120" width="8" height="16" fill="rgb(0,0,0)"/>
<rect class="gray" x="804" y="104" width="8" height="16" fill="rgb(0,0,0)"/>
<rect class="gray" x="804" y="88" width="8" height="16" fill="rgb(0,0,0)"/>
<rect class="gray" x="804" y="72" width="8" height="16" fill="rgb(0,0,0)"/>
<rect class="gray" x="804" y="56" width="8" height="16" fill="rgb(0,0,0)"/>
<rect class="gray" x="804" y="40" width="8" height="16" fill="rgb(0,0,0)"/>
<rect class="gray" x="796" y="120" width="8" height="16" fill="rgb(0,0,0)"/>
<rect class="gray" x="796" y="104" width="8" height="16" fill="rgb(0,0,0)"/>
<rect class="gray" x="796" y="88" width="8" height="16" fill="rgb(0,0,0)"/>
<rect class="gray" x="796" y="72" width="8" height="16" fill="rgb(0,0,0)"/>
<rect class="gray" x="796" y="56" width="8" height="16" fill="rgb(0,0,0)"/>
<rect class="gray" x="796" y="40" width="8" height="16" fill="rgb(0,0,0)"/>
<rect class="gray" x="788" y="136" width="8" height="16" fill="rgb(0,0,0)"/>
<rect class="gray" x="788" y="120" width="8" height="16" fill="rgb(0,0,0)"/>
<rect class="gray" x="788" y="104" width="8" height="16" fill="rgb(0,0,0)"/>
<rect class="gray" x="788" y="88" width="8" height="16" fill="rgb(0,0,0)"/>
<rect class="gray" x="788" y="72" width="8" height="16" fill="rgb(0,0,0)"/>
<rect class="gray" x="788" y="56" width="8" height="16" fill="rgb(0,0,0)"/>
<rect class="gray" x="788" y="40" width="8" height="16" fill="rgb(0,0,0)"/>
<rect class="gray" x="788" y="24" width="8" height="16" fill="rgb(0,0,0)"/>
<rect class="gray" x="780" y="104" width="8" height="16" fill="rgb(0,0,0)"/>
<rect class="gray" x="780" y="88" width="8" height="16" fill="rgb(0,0,0)"/>
<rect class="gray" x="772" y="88" width="8" height="16" fill="rgb(0,0,0)"/>
<rect class="gray" x="764" y="88" width="8" height="16" fill="rgb(0,0,0)"/>
<rect class="gray" x="764" y="72" width="8" height="16" fill="rgb(0,0,0)"/>
<rect class="gray" x="756" y="136" width="8" height="16" fill="rgb(0,0,0)"/>
<rect class="gray" x="756" y="120" width="8" height="16" fill="rgb(0,0,0)"/>
<rect class="gray" x="756" y="104" width="8" height="16" fill="rgb(0,0,0)"/>
<rect class="gray" x="756" y="88" width="8" height="16" fill="rgb(0,0,0)"/>
<rect class="gray" x="756" y="72" width="8" height="16" fill="rgb(0,0,0)"/>
<rect class="gray" x="756" y="56" width="8" height="16" fill="rgb(0,0,0)"/>
<rect class="gray" x="756" y="40" width="8" height="16" fill="rgb(0,0,0)"/>
<rect class="gray" x="756" y="24" width="8" height="16" fill="rgb(0,0,0)"/>
<rect class="gray" x="748" y="136" width="8" height="16" fill="rgb(0,0,0)"/>
<rect class="gray" x="748" y="120" width="8" height="16" fill="rgb(0,0,0)"/>
<rect class="gray" x="748" y="104" width="8" height="16" fill="rgb(0,0,0)"/>
<rect class="gray" x="748" y="88" width="8" height="16" fill="rgb(0,0,0)"/>
<rect class="gray" x="748" y="72" width="8" height="16" fill="rgb(0,0,0)"/>
<rect class="gray" x="748" y="56" width="8" height="16" fill="rgb(0,0,0)"/>
<rect class="gray" x="748" y="40" width="8" height="16" fill="rgb(0,0,0)"/>
<rect class="gray" x="740" y="136" width="8" height="16" fill="rgb(0,0,0)"/>
<rect class="gray" x="740" y="120" width="8" height="16" fill="rgb(0,0,0)"/>
<rect class="gray" x="740" y="104" width="8" height="16" fill="rgb(0,0,0)"/>
<rect class="gray" x="740" y="88" width="8" height="16" fill="rgb(0,0,0)"/>
<rect class="gray" x="740" y="72" width="8" height="16" fill="rgb(0,0,0)"/>
<rect class="gray" x="740" y="56" width="8" height="16" fill="rgb(0,0,0)"/>
<rect class="gray" x="740" y="40" width="8" height="16" fill="rgb(0,0,0)"/>
<rect class="gray" x="708" y="136" width="8" height="16" fill="rgb(0,0,0)"/>
<rect class="gray" x="708" y="24" width="8" height="16" fill="rgb(0,0,0)"/>
<rect class="gray" x="700" y="136" width="8" height="16" fill="rgb(0,0,0)"/>
<rect class="gray" x="700" y="24" width="8" height="16" fill="rgb(0,0,0)"/>
<rect class="gray" x="692" y="136" width="8" height="16" fill="rgb(0,0,0)"/>
<rect class="gray" x="692" y="24" width="8" height="16" fill="rgb(0,0,0)"/>
<rect class="gray" x="684" y="136" width="8" height="16" fill="rgb(0,0,0)"/>
<rect class="gray" x="684" y="24" width="8" height="16" fill="rgb(0,0,0)"/>
<rect class="gray" x="676" y="136" width="8" height="16" fill="rgb(0,0,0)"/>
<rect class="gray" x="676" y="120" width="8" height="16" fill="rgb(0,0,0)"/>
<rect class="gray" x="676" y="104" width="8" height="16" fill="rgb(0,0,0)"/>
<rect class="gray" x="676" y="88" width="8" height="16" fill="rgb(0,0,0)"/>
<rect class="gray" x="676" y="72" width="8" height="16" fill="rgb(0,0,0)"/>
<rect class="gray" x="676" y="56" width="8" height="16" fill="rgb(0,0,0)"/>
<rect class="gray" x="676" y="40" width="8" height="16" fill="rgb(0,0,0)"/>
<rect class="gray" x="676" y="24" width="8" height="16" fill="rgb(0,0,0)"/>
<rect class="gray" x="668" y="120" width="8" height="16" fill="rgb(0,0,0)"/>
<rect class="gray" x="668" y="104" width="8" height="16" fill="rgb(0,0,0)"/>
<rect class="gray" x="668" y="88" width="8" height="16" fill="rgb(0,0,0)"/>
<rect class="gray" x="668" y="72" width="8" height="16" fill="rgb(0,0,0)"/>
<rect class="gray" x="668" y="56" width="8" height="16" fill="rgb(0,0,0)"/>
<rect class="gray" x="668" y="40" width="8" height="16" fill="rgb(0,0,0)"/>
<rect class="gray" x="660" y="120" width="8" height="16" fill="rgb(0,0,0)"/>
<rect class="gray" x="660" y="104" width="8" height="16" fill="rgb(0,0,0)"/>
<rect class="gray" x="660" y="88" width="8" height="16" fill="rgb(0,0,0)"/>
<rect class="gray" x="660" y="72" width="8" height="16" fill="rgb(0,0,0)"/>
<rect class="gray" x="660" y="56" width="8" height="16" fill="rgb(0,0,0)"/>
<rect class="gray" x="660" y="40" width="8" height="16" fill="rgb(0,0,0)"/>
<rect class="gray" x="636" y="120" width="8" height="16" fill="rgb(0,0,0)"/>
<rect class="gray" x="636" y="104" width="8" height="16" fill="rgb(0,0,0)"/>
<rect class="gray" x="636" y="88" width="8" height="16" fill="rgb(0,0,0)"/>
<rect class="gray" x="636" y="72" width="8" height="16" fill="rgb(0,0,0)"/>
<rect class="gray" x="636" y="56" width="8" height="16" fill="rgb(0,0,0)"/>
<rect class="gray" x="636" y="40" width="8" height="16" fill="rgb(0,0,0)"/>
<rect class="gray" x="628" y="120" width="8" height="16" fill="rgb(0,0,0)"/>
<rect class="gray" x="628" y="104" width="8" height="16" fill="rgb(0,0,0)"/>
<rect class="gray" x="628" y="88" width="8" height="16" fill="rgb(0,0,0)"/>
<rect class="gray" x="628" y="72" width="8" height="16" fill="rgb(0,0,0)"/>
<rect class="gray" x="628" y="56" width="8" height="16" fill="rgb(0,0,0)"/>
<rect class="gray" x="628" y="40" width="8" height="16" fill="rgb(0,0,0)"/>
<rect class="gray" x="620" y="136" width="8" height="16" fill="rgb(0,0,0)"/>
<rect class="gray" x="620" y="120" width="8" height="16" fill="rgb(0,0,0)"/>
<rect class="gray" x="620" y="104" width="8" height="16" fill="rgb(0,0,0)"/>
<rect class="gray" x="620" y="88" width="8" height="16" fill="rgb(0,0,0)"/>
<rect class="gray" x="620" y="72" width="8" height="16" fill="rgb(0,0,0)"/>
<rect class="gray" x="620" y="56" width="8" height="16" fill="rgb(0,0,0)"/>
<rect class="gray" x="620" y="40" width="8" height="16" fill="rgb(0,0,0)"/>
<rect class="gray" x="620" y="24" width="8" height="16" fill="rgb(0,0,0)"/>
<rect class="gray" x="612" y="136" width="8" height="16" fill="rgb(0,0,0)"/>
<rect class="gray" x="612" y="24" width="8" height="16" fill="rgb(0,0,0)"/>
<rect class="gray" x="604" y="136" width="8" height="16" fill="rgb(0,0,0)"/>
<rect class="gray" x="604" y="24" width="8" height="16" fill="rgb(0,0,0)"/>
<rect class="gray" x="596" y="136" width="8" height="16" fill="rgb(0,0,0)"/>
<rect class="gray" x="596" y="24" width="8" height="16" fill="rgb(0,0,0)"/>
<rect class="gray" x="588" y="136" width="8" height="16" fill="rgb(0,0,0)"/>
<rect class="gray" x="588" y="120" width="8" height="16" fill="rgb(0,0,0)"/>
<rect class="gray" x="588" y="104" width="8" height="16" fill="rgb(0,0,0)"/>
<rect class="gray" x="588" y="88" width="8" height="16" fill="rgb(0,0,0)"/>
<rect class="gray" x="588" y="72" width="8" height="16" fill="rgb(0,0,0)"/>
<rect class="gray" x="588" y="56" width="8" height="16" fill="rgb(0,0,0)"/>
<rect class="gray" x="588" y="40" width="8" height="16" fill="rgb(0,0,0)"/>
<rect class="gray" x="588" y="24" width="8" height="16" fill="rgb(0,0,0)"/>
<rect class="gray" x="580" y="136" width="8" height="16" fill="rgb(0,0,0)"/>
<rect class="gray" x="580" y="120" width="8" height="16" fill="rgb(0,0,0)"/>
<rect class="gray" x="580" y="104" width="8" height="16" fill="rgb(0,0,0)"/>
<rect class="gray" x="580" y="88" width="8" height="16" fill="rgb(0,0,0)"/>
<rect class="gray" x="580" y="72" width="8" height="16" fill="rgb(0,0,0)"/>
<rect class="gray" x="580" y="56" width="8" height="16" fill="rgb(0,0,0)"/>
<rect class="gray" x="580" y="40" width="8" height="16" fill="rgb(0,0,0)"/>
<rect class="gray" x="580" y="24" width="8" height="16" fill="rgb(0,0,0)"/>
<rect class="gray" x="572" y="136" width="8" height="16" fill="rgb(0,0,0)"/>
<rect class="gray" x="572" y="120" width="8" height="16" fill="rgb(0,0,0)"/>
<rect class="gray" x="572" y="104" width="8" height="16" fill="rgb(0,0,0)"/>
<rect class="gray" x="572" y="88" width="8" height="16" fill="rgb(0,0,0)"/>
<rect class="gray" x="572" y="72" width="8" height="16" fill="rgb(0,0,0)"/>
<rect class="gray" x="572" y="56" width="8" height="16" fill="rgb(0,0,0)"/>
<rect class="gray" x="572" y="40" width="8" height="16" fill="rgb(0,0,0)"/>
<rect class="gray" x="572" y="24" width="8" height="16" fill="rgb(0,0,0)"/>
<rect class="gray" x="548" y="136" width="8" height="16" fill="rgb(0,0,0)"/>
<rect class="gray" x="548" y="120" width="8" height="16" fill="rgb(0,0,0)"/>
<rect class="gray" x="548" y="104" width="8" height="16" fill="rgb(0,0,0)"/>
<rect class="gray" x="548" y="56" width="8" height="16" fill="rgb(0,0,0)"/>
<rect class="gray" x="548" y="40" width="8" height="16" fill="rgb(0,0,0)"/>
<rect class="gray" x="548" y="24" width="8" height="16" fill="rgb(0,0,0)"/>
<rect class="gray" x="540" y="136" width="8" height="16" fill="rgb(0,0,0)"/>
<rect class="gray" x="540" y="120" width="8" height="16" fill="rgb(0,0,0)"/>
<rect class="gray" x="540" y="104" width="8" height="16" fill="rgb(0,0,0)"/>
<rect class="gray" x="540" y="72" width="8" height="16" fill="rgb(0,0,0)"/>
<rect class="gray" x="540" y="56" width="8" height="16" fill="rgb(0,0,0)"/>
<rect class="gray" x="540" y="40" width="8" height="16" fill="rgb(0,0,0)"/>
<rect class="gray" x="540" y="24" width="8" height="16" fill="rgb(0,0,0)"/>
<rect class="gray" x="532" y="152" width="8" height="16" fill="rgb(0,0,0)"/>
<rect class="gray" x="532" y="136" width="8" height="16" fill="rgb(0,0,0)"/>
<rect class="gray" x="532" y="120" width="8" height="16" fill="rgb(0,0,0)"/>
<rect class="gray" x="532" y="104" width="8" height="16" fill="rgb(0,0,0)"/>
<rect class="gray" x="532" y="72" width="8" height="16" fill="rgb(0,0,0)"/>
<rect class="gray" x="532" y="56" width="8" height="16" fill="rgb(0,0,0)"/>
<rect class="gray" x="532" y="40" width="8" height="16" fill="rgb(0,0,0)"/>
<rect class="gray" x="532" y="24" width="8" height="16" fill="rgb(0,0,0)"/>
<rect class="gray" x="524" y="104" width="8" height="16" fill="rgb(0,0,0)"/>
<rect class="gray" x="524" y="24" width="8" height="16" fill="rgb(0,0,0)"/>
<rect class="gray" x="516" y="104" width="8" height="16" fill="rgb(0,0,0)"/>
<rect class="gray" x="516" y="24" width="8" height="16" fill="rgb(0,0,0)"/>
<rect class="gray" x="508" y="104" width="8" height="16" fill="rgb(0,0,0)"/>
<rect class="gray" x="508" y="24" width="8" height="16" fill="rgb(0,0,0)"/>
<rect class="gray" x="500" y="152" width="8" height="16" fill="rgb(0,0,0)"/>
<rect class="gray" x="500" y="136" width="8" height="16" fill="rgb(0,0,0)"/>
<rect class="gray" x="500" y="120" width="8" height="16" fill="rgb(0,0,0)"/>
<rect class="gray" x="500" y="104" width="8" height="16" fill="rgb(0,0,0)"/>
<rect class="gray" x="500" y="88" width="8" height="16" fill="rgb(0,0,0)"/>
<rect class="gray" x="500" y="72" width="8" height="16" fill="rgb(0,0,0)"/>
<rect class="gray" x="500" y="56" width="8" height="16" fill="rgb(0,0,0)"/>
<rect class="gray" x="500" y="40" width="8" height="16" fill="rgb(0,0,0)"/>
<rect class="gray" x="500" y="24" width="8" height="16" fill="rgb(0,0,0)"/>
<rect class="gray" x="492" y="152" width="8" height="16" fill="rgb(0,0,0)"/>
<rect class="gray" x="492" y="136" width="8" height="16" fill="rgb(0,0,0)"/>
<rect class="gray" x="492" y="120" width="8" height="16" fill="rgb(0,0,0)"/>
<rect class="gray" x="492" y="104" width="8" height="16" fill="rgb(0,0,0)"/>
<rect class="gray" x="492" y="88" width="8" height="16" fill="rgb(0,0,0)"/>
<rect class="gray" x="492" y="72" width="8" height="16" fill="rgb(0,0,0)"/>
<rect class="gray" x="492" y="56" width="8" height="16" fill="rgb(0,0,0)"/>
<rect class="gray" x="492" y="40" width="8" height="16" fill="rgb(0,0,0)"/>
<rect class="gray" x="484" y="152" width="8" height="16" fill="rgb(0,0,0)"/>
<rect class="gray" x="484" y="136" width="8" height="16" fill="rgb(0,0,0)"/>
<rect class="gray" x="484" y="120" width="8" height="16" fill="rgb(0,0,0)"/>
<rect class="gray" x="484" y="104" width="8" height="16" fill="rgb(0,0,0)"/>
<rect class="gray" x="484" y="88" width="8" height="16" fill="rgb(0,0,0)"/>
<rect class="gray" x="484" y="72" width="8" height="16" fill="rgb(0,0,0)"/>
<rect class="gray" x="484" y="56" width="8" height="16" fill="rgb(0,0,0)"/>
<rect class="gray" x="484" y="40" width="8" height="16" fill="rgb(0,0,0)"/>
<rect class="gray" x="476" y="104" width="8" height="16" fill="rgb(0,0,0)"/>
<rect class="gray" x="460" y="120" width="8" height="16" fill="rgb(0,0,0)"/>
<rect class="gray" x="460" y="104" width="8" height="16" fill="rgb(0,0,0)"/>
<rect class="gray" x="460" y="88" width="8" height="16" fill="rgb(0,0,0)"/>
<rect class="gray" x="460" y="72" width="8" height="16" fill="rgb(0,0,0)"/>
<rect class="gray" x="460" y="56" width="8" height="16" fill="rgb(0,0,0)"/>
<rect class="gray" x="460" y="40" width="8" height="16" fill="rgb(0,0,0)"/>
<rect class="gray" x="460" y="24" width="8" height="16" fill="rgb(0,0,0)"/>
<rect class="gray" x="452" y="120" width="8" height="16" fill="rgb(0,0,0)"/>
<rect class="gray" x="452" y="104" width="8" height="16" fill="rgb(0,0,0)"/>
<rect class="gray" x="452" y="88" width="8" height="16" fill="rgb(0,0,0)"/>
<rect class="gray" x="452" y="72" width="8" height="16" fill="rgb(0,0,0)"/>
<rect class="gray" x="452" y="56" width="8" height="16" fill="rgb(0,0,0)"/>
<rect class="gray" x="452" y="40" width="8" height="16" fill="rgb(0,0,0)"/>
<rect class="gray" x="452" y="24" width="8" height="16" fill="rgb(0,0,0)"/>
<rect class="gray" x="444" y="136" width="8" height="16" fill="rgb(0,0,0)"/>
<rect class="gray" x="444" y="120" width="8" height="16" fill="rgb(0,0,0)"/>
<rect class="gray" x="444" y="104" width="8" height="16" fill="rgb(0,0,0)"/>
<rect class="gray" x="444" y="88" width="8" height="16" fill="rgb(0,0,0)"/>
<rect class="gray" x="444" y="72" width="8" height="16" fill="rgb(0,0,0)"/>
<rect class="gray" x="444" y="56" width="8" height="16" fill="rgb(0,0,0)"/>
<rect class="gray" x="444" y="40" width="8" height="16" fill="rgb(0,0,0)"/>
<rect class="gray" x="444" y="24" width="8" height="16" fill="rgb(0,0,0)"/>
<rect class="gray" x="436" y="24" width="8" height="16" fill="rgb(0,0,0)"/>
<rect class="gray" x="428" y="24" width="8" height="16" fill="rgb(0,0,0)"/>
<rect class="gray" x="420" y="24" width="8" height="16" fill="rgb(0,0,0)"/>
<rect class="gray" x="412" y="136" width="8" height="16" fill="rgb(0,0,0)"/>
<rect class="gray" x="412" y="120" width="8" height="16" fill="rgb(0,0,0)"/>
<rect class="gray" x="412" y="104" width="8" height="16" fill="rgb(0,0,0)"/>
<rect class="gray" x="412" y="88" width="8" height="16" fill="rgb(0,0,0)"/>
<rect class="gray" x="412" y="72" width="8" height="16" fill="rgb(0,0,0)"/>
<rect class="gray" x="412" y="56" width="8" height="16" fill="rgb(0,0,0)"/>
<rect class="gray" x="412" y="40" width="8" height="16" fill="rgb(0,0,0)"/>
<rect class="gray" x="412" y="24" width="8" height="16" fill="rgb(0,0,0)"/>
<rect class="gray" x="404" y="136" width="8" height="16" fill="rgb(0,0,0)"/>
<rect class="gray" x="404" y="120" width="8" height="16" fill="rgb(0,0,0)"/>
<rect class="gray" x="404" y="104" width="8" height="16" fill="rgb(0,0,0)"/>
<rect class="gray" x="404" y="88" width="8" height="16" fill="rgb(0,0,0)"/>
<rect class="gray" x="404" y="72" width="8" height="16" fill="rgb(0,0,0)"/>
<rect class="gray" x="404" y="56" width="8" height="16" fill="rgb(0,0,0)"/>
<rect class="gray" x="404" y="40" width="8" height="16" fill="rgb(0,0,0)"/>
<rect class="gray" x="396" y="136" width="8" height="16" fill="rgb(0,0,0)"/>
<rect class="gray" x="396" y="120" width="8" height="16" fill="rgb(0,0,0)"/>
<rect class="gray" x="396" y="104" width="8" height="16" fill="rgb(0,0,0)"/>
<rect class="gray" x="396" y="88" width="8" height="16" fill="rgb(0,0,0)"/>
<rect class="gray" x="396" y="72" width="8" height="16" fill="rgb(0,0,0)"/>
<rect class="gray" x="396" y="56" width="8" height="16" fill="rgb(0,0,0)"/>
<rect class="gray" x="396" y="40" width="8" height="16" fill="rgb(0,0,0)"/>
<rect class="gray" x="372" y="120" width="8" height="16" fill="rgb(0,0,0)"/>
<rect class="gray" x="372" y="104" width="8" height="16" fill="rgb(0,0,0)"/>
<rect class="gray" x="372" y="88" width="8" height="16" fill="rgb(0,0,0)"/>
<rect class="gray" x="372" y="40" width="8" height="16" fill="rgb(0,0,0)"/>
<rect class="gray" x="372" y="24" width="8" height="16" fill="rgb(0,0,0)"/>
<rect class="gray" x="364" y="120" width="8" height="16" fill="rgb(0,0,0)"/>
<rect class="gray" x="364" y="104" width="8" height="16" fill="rgb(0,0,0)"/>
<rect class="gray" x="364" y="88" width="8" height="16" fill="rgb(0,0,0)"/>
<rect class="gray" x="364" y="40" width="8" height="16" fill="rgb(0,0,0)"/>
<rect class="gray" x="364" y="24" width="8" height="16" fill="rgb(0,0,0)"/>
<rect class="gray" x="356" y="136" width="8" height="16" fill="rgb(0,0,0)"/>
<rect class="gray" x="356" y="120" width="8" height="16" fill="rgb(0,0,0)"/>
<rect class="gray" x="356" y="104" width="8" height="16" fill="rgb(0,0,0)"/>
<rect class="gray" x="356" y="88" width="8" height="16" fill="rgb(0,0,0)"/>
<rect class="gray" x="356" y="56" width="8" height="16" fill="rgb(0,0,0)"/>
<rect class="gray" x="356" y="40" width="8" height="16" fill="rgb(0,0,0)"/>
<rect class="gray" x="356" y="24" width="8" height="16" fill="rgb(0,0,0)"/>
<rect class="gray" x="348" y="136" width="8" height="16" fill="rgb(0,0,0)"/>
<rect class="gray" x="348" y="88" width="8" height="16" fill="rgb(0,0,0)"/>
<rect class="gray" x="348" y="24" width="8" height="16" fill="rgb(0,0,0)"/>
<rect class="gray" x="340" y="136" width="8" height="16" fill="rgb(0,0,0)"/>
<rect class="gray" x="340" y="88" width="8" height="16" fill="rgb(0,0,0)"/>
<rect class="gray" x="340" y="24" width="8" height="16" fill="rgb(0,0,0)"/>
<rect class="gray" x="332" y="136" width="8" height="16" fill="rgb(0,0,0)"/>
<rect class="gray" x="332" y="88" width="8" height="16" fill="rgb(0,0,0)"/>
<rect class="gray" x="332" y="24" width="8" height="16" fill="rgb(0,0,0)"/>
<rect class="gray" x="324" y="136" width="8" height="16" fill="rgb(0,0,0)"/>
<rect class="gray" x="324" y="120" width="8" height="16" fill="rgb(0,0,0)"/>
<rect class="gray" x="324" y="104" width="8" height="16" fill="rgb(0,0,0)"/>
<rect class="gray" x="324" y="88" width="8" height="16" fill="rgb(0,0,0)"/>
<rect class="gray" x="324" y="72" width="8" height="16" fill="rgb(0,0,0)"/>
<rect class="gray" x="324" y="56" width="8" height="16" fill="rgb(0,0,0)"/>
<rect class="gray" x="324" y="40" width="8" height="16" fill="rgb(0,0,0)"/>
<rect class="gray" x="324" y="24" width="8" height="16" fill="rgb(0,0,0)"/>
<rect class="gray" x="316" y="136" width="8" height="16" fill="rgb(0,0,0)"/>
<rect class="gray" x="316" y="120" width="8" height="16" fill="rgb(0,0,0)"/>
<rect class="gray" x="316" y="104" width="8" height="16" fill="rgb(0,0,0)"/>
<rect class="gray" x="316" y="88" width="8" height="16" fill="rgb(0,0,0)"/>
<rect class="gray" x="316" y="72" width="8" height="16" fill="rgb(0,0,0)"/>
<rect class="gray" x="316" y="56" width="8" height="16" fill="rgb(0,0,0)"/>
<rect class="gray" x="316" y="40" width="8" height="16" fill="rgb(0,0,0)"/>
<rect class="gray" x="308" y="136" width="8" height="16" fill="rgb(0,0,0)"/>
<rect class="gray" x="308" y="120" width="8" height="16" fill="rgb(0,0,0)"/>
<rect class="gray" x="308" y="104" width="8" height="16" fill="rgb(0,0,0)"/>
<rect class="gray" x="308" y="88" width="8" height="16" fill="rgb(0,0,0)"/>
<rect class="gray" x="308" y="72" width="8" height="16" fill="rgb(0,0,0)"/>
<rect class="gray" x="308" y="56" width="8" height="16" fill="rgb(0,0,0)"/>
<rect class="gray" x="308" y="40" width="8" height="16" fill="rgb(0,0,0)"/>
<rect class="gray" x="300" y="88" width="8" height="16" fill="rgb(0,0,0)"/>
<rect class="gray" x="252" y="136" width="8" height="16" fill="rgb(0,0,0)"/>
<rect class="gray" x="252" y="24" width="8" height="16" fill="rgb(0,0,0)"/>
<rect class="gray" x="244" y="136" width="8" height="16" fill="rgb(0,0,0)"/>
<rect class="gray" x="244" y="24" width="8" height="16" fill="rgb(0,0,0)"/>
<rect class="gray" x="236" y="136" width="8" height="16" fill="rgb(0,0,0)"/>
<rect class="gray" x="236" y="24" width="8" height="16" fill="rgb(0,0,0)"/>
<rect class="gray" x="228" y="136" width="8" height="16" fill="rgb(0,0,0)"/>
<rect class="gray" x="228" y="24" width="8" height="16" fill="rgb(0,0,0)"/>
<rect class="gray" x="220" y="136" width="8" height="16" fill="rgb(0,0,0)"/>
<rect class="gray" x="220" y="120" width="8" height="16" fill="rgb(0,0,0)"/>
<rect class="gray" x="220" y="104" width="8" height="16" fill="rgb(0,0,0)"/>
<rect class="gray" x="220" y="88" width="8" height="16" fill="rgb(0,0,0)"/>
<rect class="gray" x="220" y="72" width="8" height="16" fill="rgb(0,0,0)"/>
<rect class="gray" x="220" y="56" width="8" height="16" fill="rgb(0,0,0)"/>
<rect class="gray" x="220" y="40" width="8" height="16" fill="rgb(0,0,0)"/>
<rect class="gray" x="220" y="24" width="8" height="16" fill="rgb(0,0,0)"/>
<rect class="gray" x="212" y="120" width="8" height="16" fill="rgb(0,0,0)"/>
<rect class="gray" x="212" y="104" width="8" height="16" fill="rgb(0,0,0)"/>
<rect class="gray" x="212" y="88" width="8" height="16" fill="rgb(0,0,0)"/>
<rect class="gray" x="212" y="72" width="8" height="16" fill="rgb(0,0,0)"/>
<rect class="gray" x="212" y="56" width="8" height="16" fill="rgb(0,0,0)"/>
<rect class="gray" x="212" y="40" width="8" height="16" fill="rgb(0,0,0)"/>
<rect class="gray" x="204" y="120" width="8" height="16" fill="rgb(0,0,0)"/>
<rect class="gray" x="204" y="104" width="8" height="16" fill="rgb(0,0,0)"/>
<rect class="gray" x="204" y="88" width="8" height="16" fill="rgb(0,0,0)"/>
<rect class="gray" x="204" y="72" width="8" height="16" fill="rgb(0,0,0)"/>
<rect class="gray" x="204" y="56" width="8" height="16" fill="rgb(0,0,0)"/>
<rect class="gray" x="204" y="40" width="8" height="16" fill="rgb(0,0,0)"/>
<rect class="gray" x="180" y="120" width="8" height="16" fill="rgb(0,0,0)"/>
<rect class="gray" x="180" y="104" width="8" height="16" fill="rgb(0,0,0)"/>
<rect class="gray" x="180" y="88" width="8" height="16" fill="rgb(0,0,0)"/>
<rect class="gray" x="180" y="72" width="8" height="16" fill="rgb(0,0,0)"/>
<rect class="gray" x="180" y="56" width="8" height="16" fill="rgb(0,0,0)"/>
<rect class="gray" x="180" y="40" width="8" height="16" fill="rgb(0,0,0)"/>
<rect class="gray" x="172" y="120" width="8" height="16" fill="rgb(0,0,0)"/>
<rect class="gray" x="172" y="104" width="8" height="16" fill="rgb(0,0,0)"/>
<rect class="gray" x="172" y="88" width="8" height="16" fill="rgb(0,0,0)"/>
<rect class="gray" x="172" y="72" width="8" height="16" fill="rgb(0,0,0)"/>
<rect class="gray" x="172" y="56" width="8" height="16" fill="rgb(0,0,0)"/>
<rect class="gray" x="172" y="40" width="8" height="16" fill="rgb(0,0,0)"/>
<rect class="gray" x="164" y="136" width="8" height="16" fill="rgb(0,0,0)"/>
<rect class="gray" x="164" y="120" width="8" height="16" fill="rgb(0,0,0)"/>
<rect class="gray" x="164" y="104" width="8" height="16" fill="rgb(0,0,0)"/>
<rect class="gray" x="164" y="88" width="8" height="16" fill="rgb(0,0,0)"/>
<rect class="gray" x="164" y="72" width="8" height="16" fill="rgb(0,0,0)"/>
<rect class="gray" x="164" y="56" width="8" height="16" fill="rgb(0,0,0)"/>
<rect class="gray" x="164" y="40" width="8" height="16" fill="rgb(0,0,0)"/>
<rect class="gray" x="164" y="24" width="8" height="16" fill="rgb(0,0,0)"/>
<rect class="gray" x="132" y="136" width="8" height="16" fill="rgb(0,0,0)"/>
<rect class="gray" x="132" y="120" width="8" height="16" fill="rgb(0,0,0)"/>
<rect class="gray" x="132" y="104" width="8" height="16" fill="rgb(0,0,0)"/>
<rect class="gray" x="132" y="88" width="8" height="16" fill="rgb(0,0,0)"/>
<rect class="gray" x="132" y="72" width="8" height="16" fill="rgb(0,0,0)"/>
<rect class="gray" x="132" y="56" width="8" height="16" fill="rgb(0,0,0)"/>
<rect class="gray" x="132" y="40" width="8" height="16" fill="rgb(0,0,0)"/>
<rect class="gray" x="132" y="24" width="8" height="16" fill="rgb(0,0,0)"/>
<rect class="gray" x="124" y="136" width="8" height="16" fill="rgb(0,0,0)"/>
<rect class="gray" x="124" y="120" width="8" height="16" fill="rgb(0,0,0)"/>
<rect class="gray" x="124" y="104" width="8" height="16" fill="rgb(0,0,0)"/>
<rect class="gray" x="124" y="88" width="8" height="16" fill="rgb(0,0,0)"/>
<rect class="gray" x="124" y="72" width="8" height="16" fill="rgb(0,0,0)"/>
<rect class="gray" x="124" y="56" width="8" height="16" fill="rgb(0,0,0)"/>
<rect class="gray" x="124" y="40" width="8" height="16" fill="rgb(0,0,0)"/>
<rect class="gray" x="116" y="136" width="8" height="16" fill="rgb(0,0,0)"/>
<rect class="gray" x="116" y="120" width="8" height="16" fill="rgb(0,0,0)"/>
<rect class="gray" x="116" y="104" width="8" height="16" fill="rgb(0,0,0)"/>
<rect class="gray" x="116" y="88" width="8" height="16" fill="rgb(0,0,0)"/>
<rect class="gray" x="116" y="72" width="8" height="16" fill="rgb(0,0,0)"/>
<rect class="gray" x="116" y="56" width="8" height="16" fill="rgb(0,0,0)"/>
<rect class="gray" x="116" y="40" width="8" height="16" fill="rgb(0,0,0)"/>
<rect class="gray" x="92" y="24" width="8" height="16" fill="rgb(0,0,0)"/>
<rect class="gray" x="84" y="24" width="8" height="16" fill="rgb(0,0,0)"/>
<rect class="gray" x="76" y="24" width="8" height="16" fill="rgb(0,0,0)"/>
<rect class="gray" x="68" y="24" width="8" height="16" fill="rgb(0,0,0)"/>
<rect class="gray" x="60" y="136" width="8" height="16" fill="rgb(0,0,0)"/>
<rect class="gray" x="60" y="120" width="8" height="16" fill="rgb(0,0,0)"/>
<rect class="gray" x="60" y="104" width="8" height="16" fill="rgb(0,0,0)"/>
<rect class="gray" x="60" y="88" width="8" height="16" fill="rgb(0,0,0)"/>
<rect class="gray" x="60" y="72" width="8" height="16" fill="rgb(0,0,0)"/>
<rect class="gray" x="60" y="56" width="8" height="16" fill="rgb(0,0,0)"/>
<rect class="gray" x="60" y="40" width="8" height="16" fill="rgb(0,0,0)"/>
<rect class="gray" x="60" y="24" width="8" height="16" fill="rgb(0,0,0)"/>
<rect class="gray" x="52" y="136" width="8" height="16" fill="rgb(0,0,0)"/>
<rect class="gray" x="52" y="120" width="8" height="16" fill="rgb(0,0,0)"/>
<rect class="gray" x="52" y="104" width="8" height="16" fill="rgb(0,0,0)"/>
<rect class="gray" x="52" y="88" width="8" height="16" fill="rgb(0,0,0)"/>
<rect class="gray" x="52" y="72" width="8" height="16" fill="rgb(0,0,0)"/>
<rect class="gray" x="52" y="56" width="8" height="16" fill="rgb(0,0,0)"/>
<rect class="gray" x="52" y="40" width="8" height="16" fill="rgb(0,0,0)"/>
<rect class="gray" x="52" y="24" width="8" height="16" fill="rgb(0,0,0)"/>
<rect class="gray" x="44" y="136" width="8" height="16" fill="rgb(0,0,0)"/>
<rect class="gray" x="44" y="120" width="8" height="16" fill="rgb(0,0,0)"/>
<rect class="gray" x="44" y="104" width="8" height="16" fill="rgb(0,0,0)"/>
<rect class="gray" x="44" y="88" width="8" height="16" fill="rgb(0,0,0)"/>
<rect class="gray" x="44" y="72" width="8" height="16" fill="rgb(0,0,0)"/>
<rect class="gray" x="44" y="56" width="8" height="16" fill="rgb(0,0,0)"/>
<rect class="gray" x="44" y="40" width="8" height="16" fill="rgb(0,0,0)"/>
<rect class="gray" x="44" y="24" width="8" height="16" fill="rgb(0,0,0)"/>
<rect class="gray" x="36" y="24" width="8" height="16" fill="rgb(0,0,0)"/>
<rect class="gray" x="28" y="24" width="8" height="16" fill="rgb(0,0,0)"/>
<rect class="gray" x="20" y="24" width="8" height="16" fill="rgb(0,0,0)"/>
<rect class="gray" x="12" y="24" width="8" height="16" fill="rgb(0,0,0)"/>
<g class="text">
<text x="8" y="36">▄</text>
<text x="104" y="36">▄</text>
<text x="128" y="36">▄</text>
<text x="176" y="36">▄</text>
<text x="216" y="36">▄</text>
<text x="264" y="36">▄</text>
<text x="320" y="36">▄</text>
<text x="408" y="36">▄</text>
<text x="496" y="36">▄</text>
<text x="632" y="36">▄</text>
<text x="672" y="36">▄</text>
<text x="720" y="36">▄</text>
<text x="752" y="36">▄</text>
<text x="800" y="36">▄</text>
<text x="864" y="36">▄</text>
<text x="952" y="36">▄</text>
<text x="1040" y="36">▄</text>
<text x="1128" y="36">▄</text>
<text x="1176" y="36">▄</text>
<text x="368" y="68">▀</text>
<text x="1088" y="68">▀</text>
<text x="112" y="84">▄</text>
<text x="152" y="84">▄▄▄</text>
<text x="192" y="84">▄</text>
<text x="244" y="84">▄▄▄▄</text>
<text x="392" y="84">▄</text>
<text x="432" y="84">▄▄▄</text>
<text x="480" y="84">▄</text>
<text x="520" y="84">▄▄▄</text>
<text x="552" y="84">▀</text>
<text x="700" y="84">▄▄▄▄</text>
<text x="776" y="84">▄</text>
<text x="848" y="84">▄</text>
<text x="888" y="84">▄▄▄</text>
<text x="936" y="84">▄</text>
<text x="976" y="84">▄▄▄</text>
<text x="1008" y="84">▀</text>
<text x="1112" y="84">▄</text>
<text x="1152" y="84">▄▄▄</text>
<text x="108" y="100">▀▀</text>
<text x="152" y="100">▀▀▀</text>
<text x="244" y="100">▀▀▀▀</text>
<text x="392" y="100">▀</text>
<text x="432" y="100">▀▀▀</text>
<text x="480" y="100">▀</text>
<text x="524" y="100">▀▀▀▀</text>
<text x="700" y="100">▀▀▀▀</text>
<text x="848" y="100">▀</text>
<text x="888" y="100">▀▀▀</text>
<text x="936" y="100">▀</text>
<text x="980" y="100">▀▀▀▀</text>
<text x="1108" y="100">▀▀</text>
<text x="1152" y="100">▀▀▀</text>
<text x="776" y="116">▀</text>
<text x="1088" y="116">▄</text>
<text x="176" y="148">▀</text>
<text x="216" y="148">▀</text>
<text x="264" y="148">▀</text>
<text x="368" y="148">▀</text>
<text x="456" y="148">▀</text>
<text x="632" y="148">▀</text>
<text x="672" y="148">▀</text>
<text x="720" y="148">▀</text>
<text x="800" y="148">▀</text>
<text x="912" y="148">▀</text>
<text x="1088" y="148">▀</text>
<text x="1176" y="148">▀</text>
<text x="56" y="164">▀</text>
<text x="544" y="164">▀</text>
<text x="1000" y="164">▀</text>
</g>
</svg>
