<?xml version="1.0" encoding="UTF-8" standalone="no"?>
<svg
   version="1.0"
   width="1000.000000pt"
   height="1000.000000pt"
   viewBox="0 0 1000.000000 1000.000000"
   preserveAspectRatio="xMidYMid meet"
   id="svg11"
   sodipodi:docname="lotus.svg"
   inkscape:version="1.4.2 (ebf0e940d0, 2025-05-08)"
   xmlns:inkscape="http://www.inkscape.org/namespaces/inkscape"
   xmlns:sodipodi="http://sodipodi.sourceforge.net/DTD/sodipodi-0.dtd"
   xmlns="http://www.w3.org/2000/svg"
   xmlns:svg="http://www.w3.org/2000/svg">
  <defs
     id="defs11" />
  <sodipodi:namedview
     id="namedview11"
     pagecolor="#ffffff"
     bordercolor="#000000"
     borderopacity="0.25"
     inkscape:showpageshadow="2"
     inkscape:pageopacity="0.0"
     inkscape:pagecheckerboard="0"
     inkscape:deskcolor="#d1d1d1"
     inkscape:document-units="pt"
     inkscape:zoom="0.3705"
     inkscape:cx="666.66667"
     inkscape:cy="665.31714"
     inkscape:window-width="1512"
     inkscape:window-height="814"
     inkscape:window-x="0"
     inkscape:window-y="0"
     inkscape:window-maximized="1"
     inkscape:current-layer="g11" />
  <metadata
     id="metadata1">
Created by potrace 1.16, written by Peter Selinger 2001-2019
</metadata>
  <g
     transform="translate(0.000000,1000.000000) scale(0.100000,-0.100000)"
     fill="#000000"
     stroke="none"
     id="g11">
    <path
       d="M4680 8504 c-844 -87 -1579 -433 -2165 -1019 -479 -478 -809 -1079 -950 -1730 -58 -265 -67 -353 -72 -677 -7 -413 15 -614 101 -951 276 -1072 1047 -1960 2065 -2376 415 -170 917 -271 1345 -271 112 0 408 26 536 46 433 69 864 222 1226 435 985 579 1620 1572 1734 2708 13 129 13 533 0 666 -115 1197 -839 2257 -1910 2800 -595 301 -1280 433 -1910 369z m-350 -485 c41 -6 145 -25 230 -42 151 -31 162 -32 405 -31 207 1 285 5 450 27 347 44 431 44 540 -3 55 -23 147 -108 181 -167 l25 -41 47 21 c69 31 161 29 230 -7 84 -43 127 -89 252 -276 209 -310 355 -464 610 -645 293 -208 402 -316 452 -450 27 -72 30 -190 6 -246 l-16 -36 44 -21 c97 -47 167 -144 179 -245 3 -26 -1 -87 -9 -135 -37 -213 -88 -596 -93 -692 -6 -118 9 -247 58 -491 52 -263 50 -464 -6 -584 -35 -72 -111 -144 -183 -171 -1 -1 7 -21 18 -45 14 -31 20 -66 20 -120 0 -143 -61 -223 -299 -389 -163 -114 -315 -235 -382 -303 -33 -34 -109 -129 -167 -211 -199 -277 -385 -482 -482 -531 -74 -38 -172 -45 -250 -18 l-56 19 -23 -53 c-32 -73 -104 -137 -175 -158 -66 -19 -110 -16 -306 25 -185 39 -342 58 -533 66 -172 7 -287 -2 -675 -51 -241 -31 -302 -32 -360 -3 -56 26 -139 109 -176 174 -16 27 -30 50 -31 52 -1 1 -22 -7 -47 -18 -99 -44 -216 -35 -303 22 -46 31 -116 125 -240 328 -107 174 -223 303 -407 450 -57 46 -130 106 -163 135 -33 28 -103 85 -155 127 -120 96 -240 220 -269 277 -44 84 -44 197 -1 282 l19 36 -42 12 c-134 40 -218 154 -212 286 1 28 19 122 38 210 20 88 42 205 48 260 15 132 15 375 0 500 -6 55 -14 116 -16 135 -2 19 -11 87 -19 150 -36 269 -46 405 -35 471 23 143 106 251 227 295 1 0 -8 23 -20 50 -16 36 -22 69 -22 124 -1 66 4 85 32 143 39 79 99 136 252 239 193 131 254 181 395 323 94 95 166 179 220 256 177 255 328 426 411 469 63 32 195 40 275 16 29 -8 54 -14 55 -13 1 1 14 26 29 56 35 69 112 145 167 164 46 15 130 14 258 -4z"
       id="path1" />
    <path
       d="M4354 7751 c-114 -29 -168 -153 -166 -386 2 -316 136 -746 318 -1021 60 -91 183 -213 217 -216 102 -6 175 47 228 167 19 44 23 48 33 31 86 -144 162 -216 226 -216 142 0 355 335 485 765 68 226 96 389 97 565 1 194 -40 282 -144 311 -129 35 -354 -74 -565 -274 l-88 -84 -75 70 c-224 209 -441 319 -566 288z"
       id="path2" />
    <path
       d="M3465 7504 c-133 -73 -200 -272 -191 -575 l3 -136 -151 -6 c-305 -13 -481 -68 -563 -175 -30 -39 -33 -50 -33 -110 0 -53 6 -80 29 -127 87 -183 311 -374 604 -515 237 -115 451 -170 655 -170 129 0 168 12 207 64 30 41 28 136 -6 204 -14 29 -23 52 -19 52 4 0 27 -7 51 -16 67 -25 195 -24 239 1 61 36 72 72 66 210 -11 256 -146 612 -347 915 -103 156 -263 321 -353 365 -71 35 -148 42 -191 19z"
       id="path3" />
    <path
       d="M6294 7390 c-213 -45 -547 -500 -683 -929 -54 -170 -64 -228 -65 -351 -1 -94 1 -109 23 -144 45 -73 163 -97 279 -57 28 10 52 17 52 15 0 -1 -5 -15 -11 -31 -39 -101 -28 -212 25 -271 28 -30 40 -36 88 -40 198 -16 695 178 983 383 270 193 388 373 331 508 -47 113 -262 194 -541 204 l-150 6 2 71 c5 197 -66 463 -152 564 -46 54 -121 84 -181 72z"
       id="path4" />
    <path
       d="M4844 5996 c-219 -42 -394 -134 -544 -285 -124 -126 -212 -278 -257 -448 -33 -125 -41 -338 -16 -448 88 -397 361 -684 742 -781 335 -86 693 12 941 256 246 242 346 555 288 900 -63 373 -362 691 -746 791 -100 26 -309 34 -408 15z m312 -182 c61 -37 105 -106 112 -173 l4 -48 47 26 c67 38 156 37 227 -3 58 -31 88 -67 110 -128 30 -85 12 -174 -47 -242 l-38 -43 41 -6 c121 -16 213 -167 179 -293 -23 -86 -101 -161 -179 -171 -23 -3 -42 -8 -42 -10 0 -3 12 -19 27 -37 37 -44 53 -88 53 -145 0 -120 -86 -221 -203 -237 -64 -9 -108 2 -166 40 l-49 33 -12 -46 c-40 -163 -223 -231 -367 -137 -40 26 -81 88 -89 135 -4 20 -8 39 -11 43 -2 4 -29 -7 -61 -24 -51 -27 -64 -29 -120 -25 -121 9 -212 96 -220 209 -6 81 4 121 43 173 l35 45 -26 0 c-40 0 -113 40 -149 82 -54 64 -71 169 -39 246 30 74 121 143 191 145 18 1 33 2 33 4 0 2 -13 21 -29 44 -17 22 -35 64 -42 93 -32 143 88 286 239 286 61 0 103 -15 150 -54 l32 -28 0 46 c0 89 50 169 132 211 74 37 164 33 234 -11z"
       id="path5" />
    <path
       d="M4848 5425 c2 -13 -1 -48 -8 -76 -22 -91 -123 -178 -207 -179 -18 0 -33 -2 -33 -4 0 -3 11 -16 24 -30 13 -14 31 -51 41 -81 26 -83 7 -163 -53 -227 l-26 -28 25 0 c32 -1 96 -31 135 -63 34 -29 73 -102 76 -142 3 -30 5 -30 43 -5 16 11 54 25 82 31 67 13 147 -8 198 -52 l35 -31 0 26 c0 89 113 206 201 208 l30 1 -24 26 c-46 48 -61 91 -61 166 0 78 15 118 67 173 l31 32 -27 0 c-42 0 -114 39 -147 78 -33 40 -60 110 -60 155 0 28 -1 29 -18 14 -72 -65 -206 -62 -297 8 l-32 24 5 -24z m224 -217 c22 -6 62 -31 88 -55 163 -146 60 -413 -160 -413 -132 0 -234 104 -234 240 0 162 151 275 306 228z"
       id="path6" />
    <path
       d="M2427 5776 c-70 -29 -82 -38 -112 -90 -84 -145 6 -366 254 -626 44 -47 81 -86 81 -86 0 -1 -36 -37 -81 -80 -377 -366 -363 -705 30 -713 393 -8 986 204 1229 439 91 87 110 140 78 213 -17 40 -87 108 -144 140 l-43 24 53 30 c89 51 168 145 168 201 0 173 -467 406 -1076 537 -208 45 -346 48 -437 11z"
       id="path7" />
    <path
       d="M7157 5764 c-352 -54 -761 -224 -980 -407 -57 -48 -77 -82 -77 -137 0 -72 58 -152 148 -206 18 -10 32 -21 32 -24 0 -3 -13 -11 -30 -18 -47 -21 -131 -103 -151 -147 -50 -110 -3 -187 194 -317 419 -276 1069 -413 1330 -281 79 39 110 117 87 218 -26 117 -158 321 -294 455 -36 35 -66 68 -66 73 0 5 38 49 84 98 102 107 206 259 242 354 30 82 35 184 11 231 -30 58 -86 94 -175 113 -70 15 -245 12 -355 -5z"
       id="path8" />
    <path
       d="M3870 4379 c-398 -30 -950 -301 -1198 -588 -86 -101 -116 -166 -109 -236 12 -118 112 -206 284 -249 95 -24 160 -29 319 -28 l151 2 0 -158 c2 -437 155 -649 388 -537 132 63 333 312 464 574 158 315 252 662 212 784 -32 96 -154 131 -283 82 -15 -6 -16 -3 -8 27 6 18 10 69 10 113 0 88 -19 143 -62 183 -35 32 -71 39 -168 31z"
       id="path9" />
    <path
       d="M5987 4332 c-62 -38 -82 -141 -53 -265 12 -50 12 -57 -1 -53 -111 43 -249 54 -296 23 -51 -33 -62 -70 -61 -202 0 -90 6 -141 23 -203 91 -342 288 -692 520 -922 192 -191 327 -228 426 -118 88 96 128 257 128 509 l0 167 96 -5 c164 -9 381 26 482 78 87 44 159 138 159 206 0 16 -14 57 -31 93 -80 169 -423 422 -774 570 -281 119 -540 170 -618 122z"
       id="path10" />
    <path
       d="M4684 3881 c-71 -43 -210 -265 -302 -481 -207 -487 -249 -941 -101 -1089 50 -50 95 -65 166 -57 128 15 290 113 458 278 l109 108 106 -104 c242 -238 440 -334 552 -269 145 85 176 351 83 719 -96 380 -364 854 -498 878 -71 13 -156 -49 -238 -174 l-16 -25 -18 35 c-33 65 -97 142 -143 171 -54 34 -112 38 -158 10z"
       id="path11" />
  </g>
</svg>
